<?xml version="1.0" encoding="UTF-8" standalone="no"?>
<!-- Created with Inkscape (http://www.inkscape.org/) -->

<svg
   width="512"
   height="512"
   viewBox="0 0 135.46667 135.46667"
   version="1.1"
   id="svg5"
   inkscape:version="1.3 (0e150ed6c4, 2023-07-21)"
   sodipodi:docname="icon_record_mic.svg"
   xmlns:inkscape="http://www.inkscape.org/namespaces/inkscape"
   xmlns:sodipodi="http://sodipodi.sourceforge.net/DTD/sodipodi-0.dtd"
   xmlns="http://www.w3.org/2000/svg"
   xmlns:svg="http://www.w3.org/2000/svg"
   xmlns:rdf="http://www.w3.org/1999/02/22-rdf-syntax-ns#"
   xmlns:cc="http://creativecommons.org/ns#"
   xmlns:dc="http://purl.org/dc/elements/1.1/">
  <title
     id="title1">DroidRec record microphone property icon</title>
  <sodipodi:namedview
     id="namedview7"
     pagecolor="#ffffff"
     bordercolor="#666666"
     borderopacity="1.0"
     inkscape:pageshadow="2"
     inkscape:pageopacity="0.0"
     inkscape:pagecheckerboard="0"
     inkscape:document-units="mm"
     showgrid="false"
     units="px"
     width="2048px"
     inkscape:zoom="0.70710678"
     inkscape:cx="120.20815"
     inkscape:cy="437.6991"
     inkscape:window-width="1920"
     inkscape:window-height="1007"
     inkscape:window-x="0"
     inkscape:window-y="0"
     inkscape:window-maximized="1"
     inkscape:current-layer="svg5"
     inkscape:showpageshadow="2"
     inkscape:deskcolor="#d1d1d1" />
  <defs
     id="defs2" />
  <path
     id="path9734"
     style="fill:#484848;fill-opacity:1;stroke-width:5.97381;stroke-linecap:round;stroke-linejoin:round"
     inkscape:label="microphone"
     d="M 67.733499,12.4985 A 16.593912,16.593926 0 0 0 51.139852,29.092819 V 68.042918 A 16.593912,16.593926 0 0 0 67.740104,84.63724 16.593912,16.593926 0 0 0 84.327146,68.042918 V 29.092819 A 16.593912,16.593926 0 0 0 67.733499,12.4985 Z M 39.76396,58.339166 a 4.9781737,4.9781778 0 0 0 -4.965427,4.991278 c 0,0 -0.0516,8.734456 3.954197,17.696284 4.005702,8.961822 13.172612,18.622762 28.980769,18.622762 15.808057,0 24.975069,-9.66095 28.980769,-18.622762 4.005742,-8.961822 3.954202,-17.696284 3.954202,-17.696284 a 4.9781737,4.9781778 0 0 0 -4.965432,-4.991278 4.9781737,4.9781778 0 0 0 -4.99062,4.965451 c 0,0 -0.0836,6.941905 -3.085338,13.657964 -3.001907,6.716049 -7.817427,12.730179 -19.893581,12.730179 -12.076218,0 -16.885036,-6.01413 -19.88694,-12.730179 C 44.84465,70.246532 44.754582,63.304617 44.754582,63.304617 A 4.9781737,4.9781778 0 0 0 39.76396,58.339166 Z m 27.971531,41.759974 c -1.25473,0 -2.48756,0.0216 -3.70522,0.0563 a 32.462006,8.1155087 0 0 0 -0.839055,0.0324 c -0.955711,0.0336 -1.898644,0.0753 -2.825745,0.12914 a 32.462006,8.1155087 0 0 0 -0.941705,0.0609 c -0.910508,0.0603 -1.80346,0.12957 -2.680747,0.20861 a 32.462006,8.1155087 0 0 0 -0.856244,0.0781 c -0.975459,0.0957 -1.925556,0.20314 -2.852262,0.32118 a 32.462006,8.1155087 0 0 0 -0.48544,0.0583 c -1.090915,0.14471 -2.145591,0.30367 -3.158183,0.47747 a 32.462006,8.1155087 0 0 0 -0.481458,0.09 c -0.808423,0.14433 -1.59013,0.29646 -2.341004,0.45826 a 32.462006,8.1155087 0 0 0 -0.854289,0.19404 c -0.621207,0.14375 -1.217991,0.29297 -1.792674,0.44834 a 32.462006,8.1155087 0 0 0 -0.757576,0.20861 c -0.647791,0.18773 -1.257287,0.38327 -1.835054,0.58542 a 32.462006,8.1155087 0 0 0 -0.370875,0.12385 c -0.713505,0.25998 -1.370125,0.53002 -1.960867,0.81059 a 32.462006,8.1155087 0 0 0 -0.01271,0.006 c -1.772463,0.8436 -2.965066,1.77487 -3.453556,2.76087 a 32.462006,8.1155087 0 0 0 -0.02714,0.0537 c -0.1459,0.31142 -0.229096,0.62779 -0.229793,0.94897 a 32.462006,8.1155087 0 0 0 -0.0013,0.004 32.462006,8.1155087 0 0 0 6.66e-4,0.003 v 6.63628 c 3.2e-5,4.48207 14.533878,8.11503 32.462137,8.11503 17.928262,0 32.462113,-3.633 32.462143,-8.11503 v -6.63894 c 0,-0.0129 -0.004,-0.026 -0.004,-0.039 a 32.462006,8.1155087 0 0 0 -0.0344,-0.3384 c -0.0106,-0.0574 -0.0284,-0.11443 -0.0437,-0.17151 a 32.462006,8.1155087 0 0 0 -0.0589,-0.19337 c -0.0263,-0.0723 -0.0583,-0.14415 -0.0921,-0.21589 a 32.462006,8.1155087 0 0 0 -0.0702,-0.13843 c -0.0448,-0.0829 -0.093,-0.16564 -0.14769,-0.24768 a 32.462006,8.1155087 0 0 0 -0.0589,-0.0821 c -0.55666,-0.78461 -1.56238,-1.52981 -2.95159,-2.21915 a 32.462006,8.1155087 0 0 0 -0.0444,-0.0219 c -0.17362,-0.0856 -0.35445,-0.1699 -0.5397,-0.25364 a 32.462006,8.1155087 0 0 0 -1.40063,-0.57616 c -0.0605,-0.0227 -0.11941,-0.0457 -0.18079,-0.0681 a 32.462006,8.1155087 0 0 0 -1.69136,-0.56555 c -0.0847,-0.0259 -0.1723,-0.0511 -0.25826,-0.0769 a 32.462006,8.1155087 0 0 0 -1.79928,-0.49469 c -0.0923,-0.0233 -0.18476,-0.0464 -0.27815,-0.0696 a 32.462006,8.1155087 0 0 0 -1.990045,-0.45231 c -0.09661,-0.0201 -0.191126,-0.041 -0.288733,-0.0609 a 32.462006,8.1155087 0 0 0 -2.260854,-0.42251 c -0.0947,-0.0161 -0.190696,-0.0311 -0.28608,-0.047 A 32.462006,8.1155087 0 0 0 83.42657,101.1116 c -0.182634,-0.0253 -0.368187,-0.0491 -0.552976,-0.0736 a 32.462006,8.1155087 0 0 0 -2.182064,-0.26291 c -0.204238,-0.0223 -0.408144,-0.0443 -0.614538,-0.0656 a 32.462006,8.1155087 0 0 0 -2.285382,-0.2086 c -0.23006,-0.0187 -0.458423,-0.0381 -0.690707,-0.0556 a 32.462006,8.1155087 0 0 0 -2.599933,-0.16687 c -0.18845,-0.01 -0.378604,-0.0186 -0.568206,-0.0279 a 32.462006,8.1155087 0 0 0 -2.607235,-0.0994 c -0.165103,-0.004 -0.32949,-0.009 -0.49533,-0.0129 a 32.462006,8.1155087 0 0 0 -3.003262,-0.0377 c -0.03084,-1e-5 -0.06053,-0.001 -0.09137,-0.001 z" />
  <metadata
     id="metadata1">
    <rdf:RDF>
      <cc:Work
         rdf:about="">
        <dc:creator>
          <cc:Agent>
            <dc:title>Egor Olegovich Yakovlev</dc:title>
          </cc:Agent>
        </dc:creator>
        <dc:title>DroidRec record microphone property icon</dc:title>
      </cc:Work>
    </rdf:RDF>
  </metadata>
</svg>
