<?xml version="1.0" encoding="UTF-8" standalone="no"?>
<!-- Created with Inkscape (http://www.inkscape.org/) -->

<svg
   width="512"
   height="512"
   viewBox="0 0 135.46667 135.46667"
   version="1.1"
   id="svg5"
   inkscape:version="1.3 (0e150ed6c4, 2023-07-21)"
   sodipodi:docname="icon_record_mic_dark.svg"
   xmlns:inkscape="http://www.inkscape.org/namespaces/inkscape"
   xmlns:sodipodi="http://sodipodi.sourceforge.net/DTD/sodipodi-0.dtd"
   xmlns="http://www.w3.org/2000/svg"
   xmlns:svg="http://www.w3.org/2000/svg"
   xmlns:rdf="http://www.w3.org/1999/02/22-rdf-syntax-ns#"
   xmlns:cc="http://creativecommons.org/ns#"
   xmlns:dc="http://purl.org/dc/elements/1.1/">
  <title
     id="title1">DroidRec record microphone property dark icon</title>
  <sodipodi:namedview
     id="namedview7"
     pagecolor="#303030"
     bordercolor="#666666"
     borderopacity="1.0"
     inkscape:pageshadow="2"
     inkscape:pageopacity="0.0"
     inkscape:pagecheckerboard="0"
     inkscape:document-units="mm"
     showgrid="false"
     units="px"
     width="2048px"
     inkscape:zoom="0.70710678"
     inkscape:cx="132.93608"
     inkscape:cy="389.61584"
     inkscape:window-width="1920"
     inkscape:window-height="1007"
     inkscape:window-x="0"
     inkscape:window-y="0"
     inkscape:window-maximized="1"
     inkscape:current-layer="svg5"
     inkscape:showpageshadow="2"
     inkscape:deskcolor="#d1d1d1" />
  <defs
     id="defs2" />
  <path
     id="path9734"
     style="fill:#e6e6e6;fill-opacity:1;stroke-width:5.9738;stroke-linecap:round;stroke-linejoin:round"
     inkscape:label="microphone"
     d="M 67.734,12.499 A 16.593913,16.593872 0 0 0 51.140353,29.093266 V 68.043235 A 16.593913,16.593872 0 0 0 67.740605,84.6375 16.593913,16.593872 0 0 0 84.327648,68.043235 V 29.093266 A 16.593913,16.593872 0 0 0 67.734,12.499 Z M 39.764463,58.339517 a 4.9781738,4.9781614 0 0 0 -4.96543,4.991258 c 0,0 -0.05159,8.73443 3.954199,17.696224 C 42.758933,89.9888 51.925844,99.6497 67.734,99.6497 c 15.808058,0 24.97507,-9.66091 28.98077,-18.622701 4.00574,-8.961788 3.9542,-17.696224 3.9542,-17.696224 a 4.9781738,4.9781614 0 0 0 -4.96543,-4.991258 4.9781738,4.9781614 0 0 0 -4.99062,4.965433 c 0,0 -0.0836,6.941883 -3.085338,13.657918 C 84.625677,83.6789 79.810156,89.693 67.734,89.693 55.657781,89.693 50.848965,83.6789 47.847058,76.962868 44.845153,70.246843 44.755082,63.30495 44.755082,63.30495 a 4.9781738,4.9781614 0 0 0 -4.990619,-4.965433 z m 27.971529,41.759823 c -1.254731,0 -2.48756,0.0217 -3.70522,0.0563 a 32.46201,8.1154818 0 0 0 -0.839055,0.0324 c -0.95571,0.0336 -1.898643,0.0753 -2.825745,0.12914 a 32.46201,8.1154818 0 0 0 -0.941705,0.0609 c -0.910509,0.0603 -1.803459,0.12957 -2.680745,0.2086 a 32.46201,8.1154818 0 0 0 -0.856247,0.0781 c -0.975457,0.0957 -1.925557,0.20315 -2.852262,0.32119 a 32.46201,8.1154818 0 0 0 -0.485438,0.0583 c -1.090916,0.14471 -2.145593,0.30367 -3.158185,0.47747 a 32.46201,8.1154818 0 0 0 -0.481458,0.09 c -0.808422,0.14433 -1.590129,0.29646 -2.341004,0.45826 a 32.46201,8.1154818 0 0 0 -0.854286,0.19405 c -0.621209,0.14375 -1.217994,0.29296 -1.792674,0.44833 a 32.46201,8.1154818 0 0 0 -0.757578,0.2086 c -0.647793,0.18774 -1.257288,0.38328 -1.835054,0.58542 a 32.46201,8.1154818 0 0 0 -0.370874,0.12386 c -0.713504,0.25997 -1.370125,0.53 -1.960869,0.81058 a 32.46201,8.1154818 0 0 0 -0.01271,0.006 c -1.772462,0.84361 -2.965067,1.77487 -3.453559,2.76085 a 32.46201,8.1154818 0 0 0 -0.02714,0.0537 c -0.145898,0.31143 -0.229093,0.6278 -0.229791,0.94898 a 32.46201,8.1154818 0 0 0 -0.0013,0.004 32.46201,8.1154818 0 0 0 6.64e-4,0.003 v 6.63624 c 3.3e-5,4.48208 14.533878,8.11502 32.462138,8.11502 17.928263,0 32.462105,-3.63298 32.462145,-8.11502 v -6.63888 c 0,-0.0129 -0.004,-0.026 -0.004,-0.0391 a 32.46201,8.1154818 0 0 0 -0.0344,-0.33841 c -0.0106,-0.0574 -0.0285,-0.11428 -0.0437,-0.1715 a 32.46201,8.1154818 0 0 0 -0.0589,-0.19337 c -0.0263,-0.0723 -0.0583,-0.14415 -0.0921,-0.21589 a 32.46201,8.1154818 0 0 0 -0.0702,-0.13843 c -0.0448,-0.0829 -0.093,-0.16563 -0.1477,-0.24767 a 32.46201,8.1154818 0 0 0 -0.0589,-0.0821 c -0.55665,-0.78461 -1.56238,-1.5298 -2.95158,-2.21915 a 32.46201,8.1154818 0 0 0 -0.0444,-0.0219 c -0.17361,-0.0856 -0.35445,-0.1699 -0.5397,-0.25364 a 32.46201,8.1154818 0 0 0 -1.40064,-0.57613 c -0.0605,-0.0227 -0.11939,-0.0457 -0.18079,-0.0683 a 32.46201,8.1154818 0 0 0 -1.69135,-0.56555 c -0.0847,-0.0259 -0.17231,-0.0511 -0.25827,-0.0769 A 32.46201,8.1154818 0 0 0 90.82213,102.512 c -0.0923,-0.0233 -0.18475,-0.0464 -0.27814,-0.0696 a 32.46201,8.1154818 0 0 0 -1.990052,-0.45231 c -0.09661,-0.0201 -0.191124,-0.041 -0.288736,-0.0608 a 32.46201,8.1154818 0 0 0 -2.260852,-0.42251 c -0.0947,-0.0161 -0.190695,-0.0311 -0.28608,-0.047 a 32.46201,8.1154818 0 0 0 -2.291206,-0.34813 c -0.182634,-0.0253 -0.368186,-0.0491 -0.552976,-0.0736 a 32.46201,8.1154818 0 0 0 -2.182068,-0.26291 c -0.204236,-0.0223 -0.408143,-0.0443 -0.614539,-0.0656 a 32.46201,8.1154818 0 0 0 -2.285379,-0.2086 c -0.230059,-0.0187 -0.458422,-0.0381 -0.690705,-0.0556 a 32.46201,8.1154818 0 0 0 -2.599934,-0.16688 c -0.188447,-0.01 -0.378605,-0.0186 -0.568207,-0.0279 a 32.46201,8.1154818 0 0 0 -2.607238,-0.0994 c -0.1651,-0.004 -0.329487,-0.009 -0.495329,-0.0129 a 32.46201,8.1154818 0 0 0 -3.003264,-0.0377 c -0.03084,-1e-5 -0.06053,-0.001 -0.09137,-0.001 z" />
  <metadata
     id="metadata1">
    <rdf:RDF>
      <cc:Work
         rdf:about="">
        <dc:title>DroidRec record microphone property dark icon</dc:title>
        <dc:creator>
          <cc:Agent>
            <dc:title>Egor Olegovich Yakovlev</dc:title>
          </cc:Agent>
        </dc:creator>
        <cc:license
           rdf:resource="http://creativecommons.org/publicdomain/zero/1.0/" />
      </cc:Work>
      <cc:License
         rdf:about="http://creativecommons.org/publicdomain/zero/1.0/">
        <cc:permits
           rdf:resource="http://creativecommons.org/ns#Reproduction" />
        <cc:permits
           rdf:resource="http://creativecommons.org/ns#Distribution" />
        <cc:permits
           rdf:resource="http://creativecommons.org/ns#DerivativeWorks" />
      </cc:License>
    </rdf:RDF>
  </metadata>
</svg>
