<?xml version="1.0" encoding="UTF-8" standalone="no"?>
<!-- Created with Inkscape (http://www.inkscape.org/) -->

<svg
   width="512"
   height="512"
   viewBox="0 0 135.46667 135.46667"
   version="1.1"
   id="svg5"
   inkscape:version="1.3 (0e150ed6c4, 2023-07-21)"
   sodipodi:docname="icon_record_settings_dark.svg"
   xmlns:inkscape="http://www.inkscape.org/namespaces/inkscape"
   xmlns:sodipodi="http://sodipodi.sourceforge.net/DTD/sodipodi-0.dtd"
   xmlns="http://www.w3.org/2000/svg"
   xmlns:svg="http://www.w3.org/2000/svg"
   xmlns:rdf="http://www.w3.org/1999/02/22-rdf-syntax-ns#"
   xmlns:cc="http://creativecommons.org/ns#"
   xmlns:dc="http://purl.org/dc/elements/1.1/">
  <title
     id="title1">DroidRec settings dark icon</title>
  <sodipodi:namedview
     id="namedview7"
     pagecolor="#303030"
     bordercolor="#666666"
     borderopacity="1.0"
     inkscape:pageshadow="2"
     inkscape:pageopacity="0.0"
     inkscape:pagecheckerboard="0"
     inkscape:document-units="mm"
     showgrid="false"
     units="px"
     width="2048px"
     inkscape:zoom="0.70710678"
     inkscape:cx="147.07821"
     inkscape:cy="259.50819"
     inkscape:window-width="1920"
     inkscape:window-height="1007"
     inkscape:window-x="0"
     inkscape:window-y="0"
     inkscape:window-maximized="1"
     inkscape:current-layer="svg5"
     inkscape:showpageshadow="2"
     inkscape:deskcolor="#d1d1d1" />
  <defs
     id="defs2" />
  <path
     id="path10"
     style="fill:#e6e6e6;stroke-width:28.0578;stroke-linecap:round;stroke-linejoin:round;fill-opacity:1"
     d="M 67.733913,12.7335 A 14.028779,14.028865 0 0 0 53.705051,26.762393 v 7.372579 a 36.475008,36.475088 0 0 0 -8.029666,4.664119 L 39.26731,35.098883 a 14.028779,14.028865 0 0 0 -10.647066,-1.402948 14.028779,14.028865 0 0 0 -8.517999,6.536841 14.028779,14.028865 0 0 0 5.136203,19.164528 l 6.354137,3.66831 a 36.475008,36.475088 0 0 0 -0.334063,4.667598 36.475008,36.475088 0 0 0 0.333483,4.668177 L 25.238448,76.0697 a 14.028779,14.028865 0 0 0 -5.136203,19.16511 14.028779,14.028865 0 0 0 19.165065,5.13331 l 6.408655,-3.70021 a 36.475008,36.475088 0 0 0 8.029086,4.66354 v 7.37316 a 14.028779,14.028865 0 0 0 14.028862,14.02889 14.028779,14.028865 0 0 0 14.028863,-14.02889 v -7.30414 a 36.475008,36.475088 0 0 0 8.106803,-4.68848 l 6.332102,3.65613 A 14.028779,14.028865 0 0 0 115.36443,95.23481 14.028779,14.028865 0 0 0 110.23054,76.0697 l -6.33384,-3.65671 a 36.475008,36.475088 0 0 0 0.31203,-4.679778 36.475008,36.475088 0 0 0 -0.31203,-4.679197 l 6.33384,-3.656711 a 14.028779,14.028865 0 0 0 5.13389,-19.164528 14.028779,14.028865 0 0 0 -8.51859,-6.536841 14.028779,14.028865 0 0 0 -10.644159,1.402948 l -6.332102,3.65613 A 36.475008,36.475088 0 0 0 81.762776,34.065955 V 26.762393 A 14.028779,14.028865 0 0 0 67.733913,12.7335 Z m 0,38.164924 c 9.297553,-7.3e-5 16.834825,7.53718 16.834752,16.834788 7.3e-5,9.297607 -7.5372,16.83486 -16.834752,16.834788 -9.297552,7.4e-5 -16.834824,-7.53718 -16.834751,-16.834788 -7.3e-5,-9.297608 7.537199,-16.834862 16.834751,-16.834788 z"
     inkscape:label="gear" />
  <metadata
     id="metadata1">
    <rdf:RDF>
      <cc:Work
         rdf:about="">
        <dc:title>DroidRec settings dark icon</dc:title>
        <dc:creator>
          <cc:Agent>
            <dc:title>Egor Olegovich Yakovlev</dc:title>
          </cc:Agent>
        </dc:creator>
        <cc:license
           rdf:resource="http://creativecommons.org/publicdomain/zero/1.0/" />
      </cc:Work>
      <cc:License
         rdf:about="http://creativecommons.org/publicdomain/zero/1.0/">
        <cc:permits
           rdf:resource="http://creativecommons.org/ns#Reproduction" />
        <cc:permits
           rdf:resource="http://creativecommons.org/ns#Distribution" />
        <cc:permits
           rdf:resource="http://creativecommons.org/ns#DerivativeWorks" />
      </cc:License>
    </rdf:RDF>
  </metadata>
</svg>
