<?xml version="1.0" encoding="UTF-8" standalone="no"?>
<!-- Created with Inkscape (http://www.inkscape.org/) -->

<svg
   width="512"
   height="512"
   viewBox="0 0 135.46667 135.46667"
   version="1.1"
   id="svg5"
   inkscape:version="1.3 (0e150ed6c4, 2023-07-21)"
   sodipodi:docname="icon_record_screen.svg"
   xmlns:inkscape="http://www.inkscape.org/namespaces/inkscape"
   xmlns:sodipodi="http://sodipodi.sourceforge.net/DTD/sodipodi-0.dtd"
   xmlns="http://www.w3.org/2000/svg"
   xmlns:svg="http://www.w3.org/2000/svg"
   xmlns:rdf="http://www.w3.org/1999/02/22-rdf-syntax-ns#"
   xmlns:cc="http://creativecommons.org/ns#"
   xmlns:dc="http://purl.org/dc/elements/1.1/">
  <title
     id="title1">DroidRec record screen property icon</title>
  <sodipodi:namedview
     id="namedview7"
     pagecolor="#ffffff"
     bordercolor="#666666"
     borderopacity="1.0"
     inkscape:pageshadow="2"
     inkscape:pageopacity="0.0"
     inkscape:pagecheckerboard="0"
     inkscape:document-units="mm"
     showgrid="false"
     units="px"
     width="2048px"
     inkscape:zoom="0.70710678"
     inkscape:cx="96.166522"
     inkscape:cy="314.66252"
     inkscape:window-width="1920"
     inkscape:window-height="1007"
     inkscape:window-x="0"
     inkscape:window-y="0"
     inkscape:window-maximized="1"
     inkscape:current-layer="svg5"
     inkscape:showpageshadow="2"
     inkscape:deskcolor="#d1d1d1" />
  <defs
     id="defs2" />
  <path
     id="path14395"
     style="fill:#484848;fill-opacity:1;stroke:none;stroke-width:0.680004;stroke-linecap:square;stroke-linejoin:round;stroke-dasharray:none;stroke-dashoffset:0;stroke-opacity:1"
     inkscape:label="camera"
     d="m 30.864339,17.438965 a 22.00778,22.008034 82.762826 0 0 -12.05101,2.923387 22.00778,22.008034 82.762826 0 0 -8.055658,30.063665 22.00778,22.008034 82.762826 0 0 10.33977,9.141494 c -3.853256,0.116915 -6.922464,3.249461 -6.922464,7.132034 v 43.268375 c 0,3.95712 3.186042,7.14237 7.143196,7.14237 h 62.857338 c 3.957151,0 7.142457,-3.18525 7.142457,-7.14237 V 94.47765 L 127.65851,118.053 V 51.676576 L 91.317968,75.251932 v -8.552387 c 0,-3.957119 -3.185306,-7.143107 -7.142457,-7.143107 H 82.62226 A 22.00778,22.008034 82.762826 0 0 84.836237,58.480835 22.00778,22.008034 82.762826 0 0 92.891891,28.417917 22.00778,22.008034 82.762826 0 0 62.8286,20.362352 22.00778,22.008034 82.762826 0 0 51.963199,39.00708 H 51.811853 A 22.00778,22.008034 82.762826 0 0 48.876615,28.417917 22.00778,22.008034 82.762826 0 0 30.864331,17.438965 Z" />
  <metadata
     id="metadata1">
    <rdf:RDF>
      <cc:Work
         rdf:about="">
        <dc:title>DroidRec record screen property icon</dc:title>
        <dc:creator>
          <cc:Agent>
            <dc:title>Egor Olegovich Yakovlev</dc:title>
          </cc:Agent>
        </dc:creator>
        <cc:license
           rdf:resource="http://creativecommons.org/publicdomain/zero/1.0/" />
      </cc:Work>
      <cc:License
         rdf:about="http://creativecommons.org/publicdomain/zero/1.0/">
        <cc:permits
           rdf:resource="http://creativecommons.org/ns#Reproduction" />
        <cc:permits
           rdf:resource="http://creativecommons.org/ns#Distribution" />
        <cc:permits
           rdf:resource="http://creativecommons.org/ns#DerivativeWorks" />
      </cc:License>
    </rdf:RDF>
  </metadata>
</svg>
