<?xml version="1.0" encoding="UTF-8" standalone="no"?>
<!-- Created with Inkscape (http://www.inkscape.org/) -->

<svg
   width="512"
   height="512"
   viewBox="0 0 135.46666 135.46667"
   version="1.1"
   id="svg5"
   sodipodi:docname="icon_record_share_color.svg"
   inkscape:version="1.3 (0e150ed6c4, 2023-07-21)"
   xmlns:inkscape="http://www.inkscape.org/namespaces/inkscape"
   xmlns:sodipodi="http://sodipodi.sourceforge.net/DTD/sodipodi-0.dtd"
   xmlns="http://www.w3.org/2000/svg"
   xmlns:svg="http://www.w3.org/2000/svg"
   xmlns:rdf="http://www.w3.org/1999/02/22-rdf-syntax-ns#"
   xmlns:cc="http://creativecommons.org/ns#"
   xmlns:dc="http://purl.org/dc/elements/1.1/">
  <title
     id="title1">DroidRec notification record share color icon</title>
  <sodipodi:namedview
     id="namedview7"
     pagecolor="#ffffff"
     bordercolor="#666666"
     borderopacity="1.0"
     inkscape:pageshadow="2"
     inkscape:pageopacity="0.0"
     inkscape:pagecheckerboard="0"
     inkscape:document-units="px"
     showgrid="false"
     units="px"
     width="512px"
     inkscape:zoom="0.6624534"
     inkscape:cx="12.076321"
     inkscape:cy="165.29465"
     inkscape:window-width="1920"
     inkscape:window-height="1007"
     inkscape:window-x="0"
     inkscape:window-y="0"
     inkscape:window-maximized="1"
     inkscape:current-layer="svg5"
     inkscape:lockguides="false"
     showguides="true"
     inkscape:showpageshadow="2"
     inkscape:deskcolor="#d1d1d1">
    <inkscape:grid
       type="xygrid"
       id="grid2352"
       originx="0"
       originy="0"
       spacingy="1"
       spacingx="1"
       units="px"
       visible="false" />
  </sodipodi:namedview>
  <defs
     id="defs2" />
  <path
     id="path2482-6"
     style="fill:#5fd38d;fill-opacity:1;stroke:none;stroke-width:7.4291;stroke-linecap:round"
     d="M 67.733332 16.933333 C 39.677349 16.93333 16.933333 39.677352 16.933333 67.733332 C 16.933333 80.548092 21.680431 92.253021 29.50931 101.1902 C 29.311919 99.856453 29.721379 98.450121 30.747994 97.42351 L 64.615177 63.556327 C 66.33738 61.834451 69.129285 61.834451 70.851488 63.556327 L 104.71867 97.42351 C 105.74529 98.450121 106.15475 99.856453 105.95736 101.1902 C 113.78623 92.253021 118.53333 80.548092 118.53333 67.733332 C 118.53333 39.677352 95.789318 16.93333 67.733332 16.933333 z M 67.733332 30.514933 C 68.861854 30.514933 69.990389 30.945908 70.851488 31.806844 L 104.71867 65.674027 C 106.44079 67.396131 106.44079 70.188234 104.71867 71.910338 C 103.89166 72.737257 102.76999 73.201785 101.60052 73.201732 C 100.43101 73.201783 99.309372 72.737257 98.48236 71.910338 L 67.732299 41.162345 L 36.984305 71.910338 C 36.157335 72.736942 35.035915 73.201267 33.866666 73.201216 C 32.697056 73.201542 31.575218 72.737196 30.747994 71.910338 C 29.025883 70.188234 29.025883 67.396131 30.747994 65.674027 L 64.615177 31.806844 C 65.476276 30.945908 66.604813 30.514933 67.733332 30.514933 z M 67.733332 46.390449 C 68.861855 46.390449 69.990388 46.820907 70.851488 47.681843 L 104.71867 81.549027 C 106.44079 83.271133 106.44079 86.063232 104.71867 87.785338 C 103.89166 88.612256 102.77 89.076785 101.60052 89.076732 C 100.43101 89.076783 99.309373 88.612256 98.48236 87.785338 L 67.732299 57.037345 L 36.984305 87.785338 C 36.157334 88.611941 35.035916 89.076267 33.866666 89.076216 C 32.697055 89.076542 31.575219 88.612195 30.747994 87.785338 C 29.025882 86.063232 29.025882 83.271133 30.747994 81.549027 L 64.615177 47.681843 C 65.476277 46.820907 66.604811 46.390449 67.733332 46.390449 z M 67.732299 72.911828 L 36.984305 103.65982 C 36.157333 104.48642 35.035917 104.95127 33.866666 104.95122 C 33.602105 104.95129 33.340584 104.92413 33.083768 104.87783 C 42.159555 113.34766 54.340021 118.53334 67.733332 118.53333 C 81.126247 118.53334 93.306162 113.34773 102.38186 104.87835 C 102.12543 104.92457 101.86467 104.95174 101.60052 104.95173 C 100.43101 104.95178 99.309374 104.48674 98.48236 103.65982 L 67.732299 72.911828 z "
     inkscape:label="icon" />
  <metadata
     id="metadata1">
    <rdf:RDF>
      <cc:Work
         rdf:about="">
        <dc:creator>
          <cc:Agent>
            <dc:title>Egor Olegovich Yakovlev</dc:title>
          </cc:Agent>
        </dc:creator>
        <dc:title>DroidRec notification record share color icon</dc:title>
        <cc:license
           rdf:resource="http://creativecommons.org/publicdomain/zero/1.0/" />
      </cc:Work>
      <cc:License
         rdf:about="http://creativecommons.org/publicdomain/zero/1.0/">
        <cc:permits
           rdf:resource="http://creativecommons.org/ns#Reproduction" />
        <cc:permits
           rdf:resource="http://creativecommons.org/ns#Distribution" />
        <cc:permits
           rdf:resource="http://creativecommons.org/ns#DerivativeWorks" />
      </cc:License>
    </rdf:RDF>
  </metadata>
</svg>
