<?xml version="1.0" encoding="UTF-8" standalone="no"?>
<!-- Created with Inkscape (http://www.inkscape.org/) -->

<svg
   width="512"
   height="512"
   viewBox="0 0 135.46667 135.46667"
   version="1.1"
   id="svg5"
   inkscape:version="1.3 (0e150ed6c4, 2023-07-21)"
   sodipodi:docname="icon_record_screen_dark.svg"
   xmlns:inkscape="http://www.inkscape.org/namespaces/inkscape"
   xmlns:sodipodi="http://sodipodi.sourceforge.net/DTD/sodipodi-0.dtd"
   xmlns="http://www.w3.org/2000/svg"
   xmlns:svg="http://www.w3.org/2000/svg"
   xmlns:rdf="http://www.w3.org/1999/02/22-rdf-syntax-ns#"
   xmlns:cc="http://creativecommons.org/ns#"
   xmlns:dc="http://purl.org/dc/elements/1.1/">
  <title
     id="title1">DroidRec record screen property dark icon</title>
  <sodipodi:namedview
     id="namedview7"
     pagecolor="#303030"
     bordercolor="#666666"
     borderopacity="1.0"
     inkscape:pageshadow="2"
     inkscape:pageopacity="0.0"
     inkscape:pagecheckerboard="0"
     inkscape:document-units="mm"
     showgrid="false"
     units="px"
     width="2048px"
     inkscape:zoom="0.70710678"
     inkscape:cx="168.29141"
     inkscape:cy="195.86858"
     inkscape:window-width="1920"
     inkscape:window-height="1007"
     inkscape:window-x="0"
     inkscape:window-y="0"
     inkscape:window-maximized="1"
     inkscape:current-layer="svg5"
     inkscape:showpageshadow="2"
     inkscape:deskcolor="#d1d1d1" />
  <defs
     id="defs2" />
  <path
     id="path14395"
     style="fill:#e6e6e6;fill-opacity:1;stroke:none;stroke-width:0.680004;stroke-linecap:square;stroke-linejoin:round;stroke-dasharray:none;stroke-dashoffset:0;stroke-opacity:1"
     inkscape:label="camera"
     d="m 30.864433,17.438967 a 22.007782,22.008123 84.647823 0 0 -12.051061,2.923387 22.007782,22.008123 84.647823 0 0 -8.055692,30.063659 22.007782,22.008123 84.647823 0 0 10.339812,9.141496 c -3.85327,0.116916 -6.922491,3.249462 -6.922491,7.132036 v 43.268365 c 0,3.95713 3.186053,7.14238 7.143225,7.14238 h 62.857602 c 3.95717,0 7.14248,-3.18525 7.14248,-7.14238 V 94.477647 L 127.659,118.053 V 51.676573 l -36.340692,23.57536 v -8.552388 c 0,-3.95712 -3.18531,-7.143108 -7.14248,-7.143108 h -1.55327 a 22.007782,22.008123 84.647823 0 0 2.21399,-1.075602 22.007782,22.008123 84.647823 0 0 8.05569,-30.062919 A 22.007782,22.008123 84.647823 0 0 62.828821,20.362354 22.007782,22.008123 84.647823 0 0 51.96338,39.007078 H 51.812033 A 22.007782,22.008123 84.647823 0 0 48.876782,28.417916 22.007782,22.008123 84.647823 0 0 30.864425,17.438967 Z" />
  <metadata
     id="metadata1">
    <rdf:RDF>
      <cc:Work
         rdf:about="">
        <dc:title>DroidRec record screen property dark icon</dc:title>
        <dc:creator>
          <cc:Agent>
            <dc:title>Egor Olegovich Yakovlev</dc:title>
          </cc:Agent>
        </dc:creator>
        <cc:license
           rdf:resource="http://creativecommons.org/publicdomain/zero/1.0/" />
      </cc:Work>
      <cc:License
         rdf:about="http://creativecommons.org/publicdomain/zero/1.0/">
        <cc:permits
           rdf:resource="http://creativecommons.org/ns#Reproduction" />
        <cc:permits
           rdf:resource="http://creativecommons.org/ns#Distribution" />
        <cc:permits
           rdf:resource="http://creativecommons.org/ns#DerivativeWorks" />
      </cc:License>
    </rdf:RDF>
  </metadata>
</svg>
