<?xml version="1.0" encoding="UTF-8" standalone="no"?>
<!-- Created with Inkscape (http://www.inkscape.org/) -->

<svg
   width="512"
   height="512"
   viewBox="0 0 135.46667 135.46667"
   version="1.1"
   id="svg5"
   inkscape:version="1.3 (0e150ed6c4, 2023-07-21)"
   sodipodi:docname="icon_recording_in_progress.svg"
   xmlns:inkscape="http://www.inkscape.org/namespaces/inkscape"
   xmlns:sodipodi="http://sodipodi.sourceforge.net/DTD/sodipodi-0.dtd"
   xmlns="http://www.w3.org/2000/svg"
   xmlns:svg="http://www.w3.org/2000/svg"
   xmlns:rdf="http://www.w3.org/1999/02/22-rdf-syntax-ns#"
   xmlns:cc="http://creativecommons.org/ns#"
   xmlns:dc="http://purl.org/dc/elements/1.1/">
  <title
     id="title1">DroidRec screen recording in progress icon</title>
  <sodipodi:namedview
     id="namedview7"
     pagecolor="#ffffff"
     bordercolor="#666666"
     borderopacity="1.0"
     inkscape:pageshadow="2"
     inkscape:pageopacity="0.0"
     inkscape:pagecheckerboard="0"
     inkscape:document-units="mm"
     showgrid="false"
     units="px"
     width="2048px"
     inkscape:zoom="0.76508705"
     inkscape:cx="175.14347"
     inkscape:cy="403.22209"
     inkscape:window-width="1920"
     inkscape:window-height="1007"
     inkscape:window-x="0"
     inkscape:window-y="0"
     inkscape:window-maximized="1"
     inkscape:current-layer="svg5"
     inkscape:showpageshadow="2"
     inkscape:deskcolor="#d1d1d1" />
  <defs
     id="defs2" />
  <circle
     id="circle16010"
     cx="67.73333"
     cy="67.73333"
     r="48.995216"
     style="display:inline;fill:#d2d2d2;fill-opacity:1;stroke-width:0.204504;stroke-dasharray:none"
     inkscape:label="camera_background" />
  <g
     id="g16076"
     inkscape:label="camera_legs">
    <path
       style="fill:none;fill-opacity:1;stroke:#381f1f;stroke-width:7;stroke-linecap:round;stroke-linejoin:round;stroke-dasharray:none;stroke-dashoffset:0;stroke-opacity:1"
       d="M 49.971165,94.927922 34.663037,121.44237"
       id="path16067" />
    <path
       style="fill:none;fill-opacity:1;stroke:#381f1f;stroke-width:7;stroke-linecap:round;stroke-linejoin:round;stroke-dasharray:none;stroke-dashoffset:0;stroke-opacity:1"
       d="M 87.492767,121.44237 72.184639,94.927922"
       id="path16069" />
    <path
       style="fill:none;fill-opacity:1;stroke:#381f1f;stroke-width:7;stroke-linecap:round;stroke-linejoin:round;stroke-dasharray:none;stroke-dashoffset:0;stroke-opacity:1"
       d="M 59.562,121.44237 V 94.927922"
       id="path16071"
       sodipodi:nodetypes="cc" />
  </g>
  <g
     inkscape:groupmode="layer"
     id="layer1"
     inkscape:label="microphone"
     style="display:inline"
     transform="translate(4.4497616e-4,4.266203e-4)">
    <path
       style="fill:none;stroke:#381f1f;stroke-width:1.8;stroke-linecap:round;stroke-linejoin:round;stroke-dasharray:none;stroke-dashoffset:0;stroke-opacity:1"
       d="m 53.083555,60.345801 17.982702,-38.213244 22.651288,6.05187"
       id="path3726"
       inkscape:label="pole" />
    <path
       style="fill:none;stroke:#121212;stroke-width:7;stroke-linecap:round;stroke-linejoin:round;stroke-dasharray:none;stroke-dashoffset:0;stroke-opacity:1"
       d="m 90.345789,27.146965 22.651291,6.05187"
       id="path3728"
       sodipodi:nodetypes="cc"
       inkscape:label="listener" />
  </g>
  <g
     inkscape:groupmode="layer"
     id="layer2"
     inkscape:label="camera_body"
     transform="translate(-7.9538877,12.708494)">
    <g
       id="g15986"
       inkscape:label="camera_box">
      <path
         style="fill:#492b2b;fill-opacity:1;stroke:none;stroke-width:0.476001;stroke-linecap:square;stroke-linejoin:round;stroke-dasharray:none;stroke-dashoffset:0;stroke-opacity:1"
         d="M 92.788893,53.7722 119.438,36.483755 v 46.464 L 92.788893,65.659205 Z"
         id="path14395"
         sodipodi:nodetypes="ccccc"
         inkscape:label="box_eye" />
      <rect
         style="fill:#6a3b3b;fill-opacity:1;stroke-width:0.498644;stroke-linecap:square;stroke-linejoin:round"
         id="rect9554"
         width="54"
         height="40.287998"
         x="40"
         y="42"
         rx="5"
         ry="5"
         inkscape:label="box_main" />
      <rect
         style="fill:none;fill-opacity:1;stroke:#cdcdcd;stroke-width:1.8;stroke-linecap:square;stroke-linejoin:round;stroke-dasharray:none;stroke-dashoffset:0;stroke-opacity:1"
         id="rect11064"
         width="43"
         height="29.288"
         x="45.5"
         y="47.5"
         rx="5"
         ry="5"
         inkscape:label="box_border" />
    </g>
    <path
       style="stroke-width:5;stroke-dasharray:none;fill:#381f1f;fill-opacity:1;stroke:#381f1f;stroke-linecap:round;stroke-linejoin:round;stroke-dashoffset:0;stroke-opacity:1"
       d="M 82.536306,40.049397 H 51.72521"
       id="path16194"
       inkscape:label="tape" />
    <g
       id="g16480"
       transform="matrix(-0.23809447,-0.41239173,0.41239305,-0.23809524,82.561284,49.342571)"
       style="stroke-width:0.9996"
       inkscape:label="right_reel">
      <circle
         style="stroke-width:0.499999;fill:#6a3b3b;stroke-linecap:square;stroke-linejoin:round;fill-opacity:1"
         id="circle16456"
         cx="39.681858"
         cy="20.905548"
         r="15.405549"
         transform="matrix(2.1000001,0,1.8757522e-8,2.1000001,-43.503943,-22.849997)"
         inkscape:label="outer_circle" />
      <path
         style="stroke-width:0.9996;color:#000000;fill:#cdcdcd;stroke-linecap:square;stroke-linejoin:round;stroke-dasharray:1.8, 21.6;-inkscape-stroke:none"
         d="m 50.408203,19.994141 -0.01172,0.90039 -0.002,0.28711 -0.01172,0.27539 -0.01758,0.273438 -0.02344,0.271484 -0.03125,0.269531 -0.03711,0.267578 -0.04297,0.263672 -0.05078,0.263672 -0.05664,0.259766 -0.0625,0.257812 -0.07031,0.25586 -0.07422,0.251953 -0.08203,0.25 -0.277343,0.855469 1.71289,0.55664 0.277344,-0.855469 0.08398,-0.261718 c 0.0021,-0.0071 0.004,-0.0143 0.0059,-0.02148 l 0.08203,-0.273437 c 0.0021,-0.0071 0.004,-0.0143 0.0059,-0.02148 l 0.07617,-0.277343 c 0.0021,-0.0071 0.004,-0.0143 0.0059,-0.02148 l 0.0683,-0.279312 c 0.0014,-0.0071 0.0027,-0.0143 0.0039,-0.02148 l 0.0625,-0.283203 c 0.0014,-0.0071 0.0027,-0.0143 0.0039,-0.02148 L 52,23.130859 c 0.0014,-0.0071 0.0027,-0.0143 0.0039,-0.02148 l 0.04687,-0.287109 c 0.0014,-0.0078 0.0027,-0.01561 0.0039,-0.02344 l 0.04102,-0.289062 c 7.69e-4,-0.0078 0.0014,-0.01562 0.002,-0.02344 l 0.0332,-0.291016 c 7.69e-4,-0.0078 0.0014,-0.01562 0.002,-0.02344 l 0.02734,-0.292969 c 7.69e-4,-0.0078 0.0014,-0.01562 0.002,-0.02344 l 0.01758,-0.294922 c 7.69e-4,-0.0078 0.0014,-0.01562 0.002,-0.02344 l 0.01172,-0.296875 c 1.02e-4,-0.0078 1.02e-4,-0.01563 0,-0.02344 l 0.0039,-0.300781 0.01172,-0.898438 z"
         id="path16462"
         sodipodi:nodetypes="ccccccccccccccccccccccccccccccccccccccccccccc"
         transform="matrix(1.4849243,-1.4849196,1.4849291,1.4849243,-50.139847,48.932858)"
         inkscape:label="pattern_8" />
      <path
         style="stroke-width:0.9996;color:#000000;fill:#cdcdcd;stroke-linecap:square;stroke-linejoin:round;stroke-dasharray:1.8, 21.6;-inkscape-stroke:none"
         d="m 50.408203,19.994141 -0.01172,0.90039 -0.002,0.28711 -0.01172,0.27539 -0.01758,0.273438 -0.02344,0.271484 -0.03125,0.269531 -0.03711,0.267578 -0.04297,0.263672 -0.05078,0.263672 -0.05664,0.259766 -0.0625,0.257812 -0.07031,0.25586 -0.07422,0.251953 -0.08203,0.25 -0.277343,0.855469 1.71289,0.55664 0.277344,-0.855469 0.08398,-0.261718 c 0.0021,-0.0071 0.004,-0.0143 0.0059,-0.02148 l 0.08203,-0.273437 c 0.0021,-0.0071 0.004,-0.0143 0.0059,-0.02148 l 0.07617,-0.277343 c 0.0021,-0.0071 0.004,-0.0143 0.0059,-0.02148 l 0.0683,-0.279312 c 0.0014,-0.0071 0.0027,-0.0143 0.0039,-0.02148 l 0.0625,-0.283203 c 0.0014,-0.0071 0.0027,-0.0143 0.0039,-0.02148 L 52,23.130859 c 0.0014,-0.0071 0.0027,-0.0143 0.0039,-0.02148 l 0.04687,-0.287109 c 0.0014,-0.0078 0.0027,-0.01561 0.0039,-0.02344 l 0.04102,-0.289062 c 7.69e-4,-0.0078 0.0014,-0.01562 0.002,-0.02344 l 0.0332,-0.291016 c 7.69e-4,-0.0078 0.0014,-0.01562 0.002,-0.02344 l 0.02734,-0.292969 c 7.69e-4,-0.0078 0.0014,-0.01562 0.002,-0.02344 l 0.01758,-0.294922 c 7.69e-4,-0.0078 0.0014,-0.01562 0.002,-0.02344 l 0.01172,-0.296875 c 1.02e-4,-0.0078 1.02e-4,-0.01563 0,-0.02344 l 0.0039,-0.300781 0.01172,-0.898438 z"
         id="path16460"
         sodipodi:nodetypes="ccccccccccccccccccccccccccccccccccccccccccccc"
         transform="matrix(2.7223333e-8,-2.0999934,2.1000068,-4.8920004e-8,-4.0738366,104.38329)"
         inkscape:label="pattern_7" />
      <path
         style="stroke-width:0.9996;color:#000000;fill:#cdcdcd;stroke-linecap:square;stroke-linejoin:round;stroke-dasharray:1.8, 21.6;-inkscape-stroke:none"
         d="m 50.408203,19.994141 -0.01172,0.90039 -0.002,0.28711 -0.01172,0.27539 -0.01758,0.273438 -0.02344,0.271484 -0.03125,0.269531 -0.03711,0.267578 -0.04297,0.263672 -0.05078,0.263672 -0.05664,0.259766 -0.0625,0.257812 -0.07031,0.25586 -0.07422,0.251953 -0.08203,0.25 -0.277343,0.855469 1.71289,0.55664 0.277344,-0.855469 0.08398,-0.261718 c 0.0021,-0.0071 0.004,-0.0143 0.0059,-0.02148 l 0.08203,-0.273437 c 0.0021,-0.0071 0.004,-0.0143 0.0059,-0.02148 l 0.07617,-0.277343 c 0.0021,-0.0071 0.004,-0.0143 0.0059,-0.02148 l 0.0683,-0.279312 c 0.0014,-0.0071 0.0027,-0.0143 0.0039,-0.02148 l 0.0625,-0.283203 c 0.0014,-0.0071 0.0027,-0.0143 0.0039,-0.02148 L 52,23.130859 c 0.0014,-0.0071 0.0027,-0.0143 0.0039,-0.02148 l 0.04687,-0.287109 c 0.0014,-0.0078 0.0027,-0.01561 0.0039,-0.02344 l 0.04102,-0.289062 c 7.69e-4,-0.0078 0.0014,-0.01562 0.002,-0.02344 l 0.0332,-0.291016 c 7.69e-4,-0.0078 0.0014,-0.01562 0.002,-0.02344 l 0.02734,-0.292969 c 7.69e-4,-0.0078 0.0014,-0.01562 0.002,-0.02344 l 0.01758,-0.294922 c 7.69e-4,-0.0078 0.0014,-0.01562 0.002,-0.02344 l 0.01172,-0.296875 c 1.02e-4,-0.0078 1.02e-4,-0.01563 0,-0.02344 l 0.0039,-0.300781 0.01172,-0.898438 z"
         id="path16468"
         sodipodi:nodetypes="ccccccccccccccccccccccccccccccccccccccccccccc"
         transform="matrix(-1.4849243,-1.4849196,1.4849291,-1.4849243,67.70926,111.01918)"
         inkscape:label="pattern_6" />
      <path
         style="stroke-width:0.9996;color:#000000;fill:#cdcdcd;stroke-linecap:square;stroke-linejoin:round;stroke-dasharray:1.8, 21.6;-inkscape-stroke:none"
         d="m 50.408203,19.994141 -0.01172,0.90039 -0.002,0.28711 -0.01172,0.27539 -0.01758,0.273438 -0.02344,0.271484 -0.03125,0.269531 -0.03711,0.267578 -0.04297,0.263672 -0.05078,0.263672 -0.05664,0.259766 -0.0625,0.257812 -0.07031,0.25586 -0.07422,0.251953 -0.08203,0.25 -0.277343,0.855469 1.71289,0.55664 0.277344,-0.855469 0.08398,-0.261718 c 0.0021,-0.0071 0.004,-0.0143 0.0059,-0.02148 l 0.08203,-0.273437 c 0.0021,-0.0071 0.004,-0.0143 0.0059,-0.02148 l 0.07617,-0.277343 c 0.0021,-0.0071 0.004,-0.0143 0.0059,-0.02148 l 0.0683,-0.279312 c 0.0014,-0.0071 0.0027,-0.0143 0.0039,-0.02148 l 0.0625,-0.283203 c 0.0014,-0.0071 0.0027,-0.0143 0.0039,-0.02148 L 52,23.130859 c 0.0014,-0.0071 0.0027,-0.0143 0.0039,-0.02148 l 0.04687,-0.287109 c 0.0014,-0.0078 0.0027,-0.01561 0.0039,-0.02344 l 0.04102,-0.289062 c 7.69e-4,-0.0078 0.0014,-0.01562 0.002,-0.02344 l 0.0332,-0.291016 c 7.69e-4,-0.0078 0.0014,-0.01562 0.002,-0.02344 l 0.02734,-0.292969 c 7.69e-4,-0.0078 0.0014,-0.01562 0.002,-0.02344 l 0.01758,-0.294922 c 7.69e-4,-0.0078 0.0014,-0.01562 0.002,-0.02344 l 0.01172,-0.296875 c 1.02e-4,-0.0078 1.02e-4,-0.01563 0,-0.02344 l 0.0039,-0.300781 0.01172,-0.898438 z"
         id="path16458"
         sodipodi:nodetypes="ccccccccccccccccccccccccccccccccccccccccccccc"
         transform="matrix(-2.1000001,0,-1.8757522e-8,-2.1000001,123.15987,64.953308)"
         inkscape:label="pattern_5" />
      <path
         style="stroke-width:0.9996;color:#000000;fill:#cdcdcd;stroke-linecap:square;stroke-linejoin:round;stroke-dasharray:1.8, 21.6;-inkscape-stroke:none"
         d="m 50.408203,19.994141 -0.01172,0.90039 -0.002,0.28711 -0.01172,0.27539 -0.01758,0.273438 -0.02344,0.271484 -0.03125,0.269531 -0.03711,0.267578 -0.04297,0.263672 -0.05078,0.263672 -0.05664,0.259766 -0.0625,0.257812 -0.07031,0.25586 -0.07422,0.251953 -0.08203,0.25 -0.277343,0.855469 1.71289,0.55664 0.277344,-0.855469 0.08398,-0.261718 c 0.0021,-0.0071 0.004,-0.0143 0.0059,-0.02148 l 0.08203,-0.273437 c 0.0021,-0.0071 0.004,-0.0143 0.0059,-0.02148 l 0.07617,-0.277343 c 0.0021,-0.0071 0.004,-0.0143 0.0059,-0.02148 l 0.0683,-0.279312 c 0.0014,-0.0071 0.0027,-0.0143 0.0039,-0.02148 l 0.0625,-0.283203 c 0.0014,-0.0071 0.0027,-0.0143 0.0039,-0.02148 L 52,23.130859 c 0.0014,-0.0071 0.0027,-0.0143 0.0039,-0.02148 l 0.04687,-0.287109 c 0.0014,-0.0078 0.0027,-0.01561 0.0039,-0.02344 l 0.04102,-0.289062 c 7.69e-4,-0.0078 0.0014,-0.01562 0.002,-0.02344 l 0.0332,-0.291016 c 7.69e-4,-0.0078 0.0014,-0.01562 0.002,-0.02344 l 0.02734,-0.292969 c 7.69e-4,-0.0078 0.0014,-0.01562 0.002,-0.02344 l 0.01758,-0.294922 c 7.69e-4,-0.0078 0.0014,-0.01562 0.002,-0.02344 l 0.01172,-0.296875 c 1.02e-4,-0.0078 1.02e-4,-0.01563 0,-0.02344 l 0.0039,-0.300781 0.01172,-0.898438 z"
         id="path16466"
         sodipodi:nodetypes="ccccccccccccccccccccccccccccccccccccccccccccc"
         transform="matrix(-1.4849243,1.4849196,-1.4849291,-1.4849243,129.79578,-6.829551)"
         inkscape:label="pattern_4" />
      <path
         style="stroke-width:0.9996;color:#000000;display:inline;fill:#cdcdcd;stroke-linecap:square;stroke-linejoin:round;stroke-dasharray:1.8, 21.6;-inkscape-stroke:none"
         d="m 50.408203,19.994141 -0.01172,0.90039 -0.002,0.28711 -0.01172,0.27539 -0.01758,0.273438 -0.02344,0.271484 -0.03125,0.269531 -0.03711,0.267578 -0.04297,0.263672 -0.05078,0.263672 -0.05664,0.259766 -0.0625,0.257812 -0.07031,0.25586 -0.07422,0.251953 -0.08203,0.25 -0.277343,0.855469 1.71289,0.55664 0.277344,-0.855469 0.08398,-0.261718 c 0.0021,-0.0071 0.004,-0.0143 0.0059,-0.02148 l 0.08203,-0.273437 c 0.0021,-0.0071 0.004,-0.0143 0.0059,-0.02148 l 0.07617,-0.277343 c 0.0021,-0.0071 0.004,-0.0143 0.0059,-0.02148 l 0.0683,-0.279312 c 0.0014,-0.0071 0.0027,-0.0143 0.0039,-0.02148 l 0.0625,-0.283203 c 0.0014,-0.0071 0.0027,-0.0143 0.0039,-0.02148 L 52,23.130859 c 0.0014,-0.0071 0.0027,-0.0143 0.0039,-0.02148 l 0.04687,-0.287109 c 0.0014,-0.0078 0.0027,-0.01561 0.0039,-0.02344 l 0.04102,-0.289062 c 7.69e-4,-0.0078 0.0014,-0.01562 0.002,-0.02344 l 0.0332,-0.291016 c 7.69e-4,-0.0078 0.0014,-0.01562 0.002,-0.02344 l 0.02734,-0.292969 c 7.69e-4,-0.0078 0.0014,-0.01562 0.002,-0.02344 l 0.01758,-0.294922 c 7.69e-4,-0.0078 0.0014,-0.01562 0.002,-0.02344 l 0.01172,-0.296875 c 1.02e-4,-0.0078 1.02e-4,-0.01563 0,-0.02344 l 0.0039,-0.300781 0.01172,-0.898438 z"
         id="path16470"
         sodipodi:nodetypes="ccccccccccccccccccccccccccccccccccccccccccccc"
         transform="matrix(-2.7223333e-8,2.0999934,-2.1000068,4.8920004e-8,83.729765,-62.279978)"
         inkscape:label="pattern_3" />
      <path
         style="stroke-width:0.9996;color:#000000;fill:#cdcdcd;stroke-linecap:square;stroke-linejoin:round;stroke-dasharray:1.8, 21.6;-inkscape-stroke:none"
         d="m 50.408203,19.994141 -0.01172,0.90039 -0.002,0.28711 -0.01172,0.27539 -0.01758,0.273438 -0.02344,0.271484 -0.03125,0.269531 -0.03711,0.267578 -0.04297,0.263672 -0.05078,0.263672 -0.05664,0.259766 -0.0625,0.257812 -0.07031,0.25586 -0.07422,0.251953 -0.08203,0.25 -0.277343,0.855469 1.71289,0.55664 0.277344,-0.855469 0.08398,-0.261718 c 0.0021,-0.0071 0.004,-0.0143 0.0059,-0.02148 l 0.08203,-0.273437 c 0.0021,-0.0071 0.004,-0.0143 0.0059,-0.02148 l 0.07617,-0.277343 c 0.0021,-0.0071 0.004,-0.0143 0.0059,-0.02148 l 0.0683,-0.279312 c 0.0014,-0.0071 0.0027,-0.0143 0.0039,-0.02148 l 0.0625,-0.283203 c 0.0014,-0.0071 0.0027,-0.0143 0.0039,-0.02148 L 52,23.130859 c 0.0014,-0.0071 0.0027,-0.0143 0.0039,-0.02148 l 0.04687,-0.287109 c 0.0014,-0.0078 0.0027,-0.01561 0.0039,-0.02344 l 0.04102,-0.289062 c 7.69e-4,-0.0078 0.0014,-0.01562 0.002,-0.02344 l 0.0332,-0.291016 c 7.69e-4,-0.0078 0.0014,-0.01562 0.002,-0.02344 l 0.02734,-0.292969 c 7.69e-4,-0.0078 0.0014,-0.01562 0.002,-0.02344 l 0.01758,-0.294922 c 7.69e-4,-0.0078 0.0014,-0.01562 0.002,-0.02344 l 0.01172,-0.296875 c 1.02e-4,-0.0078 1.02e-4,-0.01563 0,-0.02344 l 0.0039,-0.300781 0.01172,-0.898438 z"
         id="path16464"
         sodipodi:nodetypes="ccccccccccccccccccccccccccccccccccccccccccccc"
         transform="matrix(1.4849243,1.4849196,-1.4849291,1.4849243,11.946665,-68.915869)"
         inkscape:label="pattern_2" />
      <path
         style="stroke-width:0.9996;color:#000000;fill:#cdcdcd;stroke-linecap:square;stroke-linejoin:round;stroke-dasharray:1.8, 21.6;-inkscape-stroke:none"
         d="m 50.408203,19.994141 -0.01172,0.90039 -0.002,0.28711 -0.01172,0.27539 -0.01758,0.273438 -0.02344,0.271484 -0.03125,0.269531 -0.03711,0.267578 -0.04297,0.263672 -0.05078,0.263672 -0.05664,0.259766 -0.0625,0.257812 -0.07031,0.25586 -0.07422,0.251953 -0.08203,0.25 -0.277343,0.855469 1.71289,0.55664 0.277344,-0.855469 0.08398,-0.261718 c 0.0021,-0.0071 0.004,-0.0143 0.0059,-0.02148 l 0.08203,-0.273437 c 0.0021,-0.0071 0.004,-0.0143 0.0059,-0.02148 l 0.07617,-0.277343 c 0.0021,-0.0071 0.004,-0.0143 0.0059,-0.02148 l 0.0683,-0.279312 c 0.0014,-0.0071 0.0027,-0.0143 0.0039,-0.02148 l 0.0625,-0.283203 c 0.0014,-0.0071 0.0027,-0.0143 0.0039,-0.02148 L 52,23.130859 c 0.0014,-0.0071 0.0027,-0.0143 0.0039,-0.02148 l 0.04687,-0.287109 c 0.0014,-0.0078 0.0027,-0.01561 0.0039,-0.02344 l 0.04102,-0.289062 c 7.69e-4,-0.0078 0.0014,-0.01562 0.002,-0.02344 l 0.0332,-0.291016 c 7.69e-4,-0.0078 0.0014,-0.01562 0.002,-0.02344 l 0.02734,-0.292969 c 7.69e-4,-0.0078 0.0014,-0.01562 0.002,-0.02344 l 0.01758,-0.294922 c 7.69e-4,-0.0078 0.0014,-0.01562 0.002,-0.02344 l 0.01172,-0.296875 c 1.02e-4,-0.0078 1.02e-4,-0.01563 0,-0.02344 l 0.0039,-0.300781 0.01172,-0.898438 z"
         id="path16476"
         sodipodi:nodetypes="ccccccccccccccccccccccccccccccccccccccccccccc"
         transform="matrix(2.1000001,0,1.8757522e-8,2.1000001,-43.50394,-22.850002)"
         inkscape:label="pattern_1" />
      <circle
         style="stroke-width:0.9996;fill:#381f1f;stroke-linecap:square;stroke-linejoin:round;fill-opacity:1"
         id="circle16474"
         cx="39.681858"
         cy="20.905548"
         r="15.405549"
         inkscape:label="inner_circle" />
    </g>
    <g
       id="g8"
       transform="matrix(-0.23809447,-0.41239173,0.41239305,-0.23809524,51.750686,49.342571)"
       style="stroke-width:0.9996"
       inkscape:label="left_reel">
      <circle
         style="fill:#6a3b3b;fill-opacity:1;stroke-width:0.499999;stroke-linecap:square;stroke-linejoin:round"
         id="circle1"
         cx="39.681858"
         cy="20.905548"
         r="15.405549"
         transform="matrix(2.1000001,0,1.8757522e-8,2.1000001,-43.503943,-22.849997)"
         inkscape:label="outer_circle" />
      <path
         style="color:#000000;fill:#cdcdcd;stroke-width:0.9996;stroke-linecap:square;stroke-linejoin:round;stroke-dasharray:1.8, 21.6;-inkscape-stroke:none"
         d="m 50.408203,19.994141 -0.01172,0.90039 -0.002,0.28711 -0.01172,0.27539 -0.01758,0.273438 -0.02344,0.271484 -0.03125,0.269531 -0.03711,0.267578 -0.04297,0.263672 -0.05078,0.263672 -0.05664,0.259766 -0.0625,0.257812 -0.07031,0.25586 -0.07422,0.251953 -0.08203,0.25 -0.277343,0.855469 1.71289,0.55664 0.277344,-0.855469 0.08398,-0.261718 c 0.0021,-0.0071 0.004,-0.0143 0.0059,-0.02148 l 0.08203,-0.273437 c 0.0021,-0.0071 0.004,-0.0143 0.0059,-0.02148 l 0.07617,-0.277343 c 0.0021,-0.0071 0.004,-0.0143 0.0059,-0.02148 l 0.0683,-0.279312 c 0.0014,-0.0071 0.0027,-0.0143 0.0039,-0.02148 l 0.0625,-0.283203 c 0.0014,-0.0071 0.0027,-0.0143 0.0039,-0.02148 L 52,23.130859 c 0.0014,-0.0071 0.0027,-0.0143 0.0039,-0.02148 l 0.04687,-0.287109 c 0.0014,-0.0078 0.0027,-0.01561 0.0039,-0.02344 l 0.04102,-0.289062 c 7.69e-4,-0.0078 0.0014,-0.01562 0.002,-0.02344 l 0.0332,-0.291016 c 7.69e-4,-0.0078 0.0014,-0.01562 0.002,-0.02344 l 0.02734,-0.292969 c 7.69e-4,-0.0078 0.0014,-0.01562 0.002,-0.02344 l 0.01758,-0.294922 c 7.69e-4,-0.0078 0.0014,-0.01562 0.002,-0.02344 l 0.01172,-0.296875 c 1.02e-4,-0.0078 1.02e-4,-0.01563 0,-0.02344 l 0.0039,-0.300781 0.01172,-0.898438 z"
         id="path1"
         sodipodi:nodetypes="ccccccccccccccccccccccccccccccccccccccccccccc"
         transform="matrix(1.4849243,-1.4849196,1.4849291,1.4849243,-50.139847,48.932858)"
         inkscape:label="pattern_8" />
      <path
         style="color:#000000;fill:#cdcdcd;stroke-width:0.9996;stroke-linecap:square;stroke-linejoin:round;stroke-dasharray:1.8, 21.6;-inkscape-stroke:none"
         d="m 50.408203,19.994141 -0.01172,0.90039 -0.002,0.28711 -0.01172,0.27539 -0.01758,0.273438 -0.02344,0.271484 -0.03125,0.269531 -0.03711,0.267578 -0.04297,0.263672 -0.05078,0.263672 -0.05664,0.259766 -0.0625,0.257812 -0.07031,0.25586 -0.07422,0.251953 -0.08203,0.25 -0.277343,0.855469 1.71289,0.55664 0.277344,-0.855469 0.08398,-0.261718 c 0.0021,-0.0071 0.004,-0.0143 0.0059,-0.02148 l 0.08203,-0.273437 c 0.0021,-0.0071 0.004,-0.0143 0.0059,-0.02148 l 0.07617,-0.277343 c 0.0021,-0.0071 0.004,-0.0143 0.0059,-0.02148 l 0.0683,-0.279312 c 0.0014,-0.0071 0.0027,-0.0143 0.0039,-0.02148 l 0.0625,-0.283203 c 0.0014,-0.0071 0.0027,-0.0143 0.0039,-0.02148 L 52,23.130859 c 0.0014,-0.0071 0.0027,-0.0143 0.0039,-0.02148 l 0.04687,-0.287109 c 0.0014,-0.0078 0.0027,-0.01561 0.0039,-0.02344 l 0.04102,-0.289062 c 7.69e-4,-0.0078 0.0014,-0.01562 0.002,-0.02344 l 0.0332,-0.291016 c 7.69e-4,-0.0078 0.0014,-0.01562 0.002,-0.02344 l 0.02734,-0.292969 c 7.69e-4,-0.0078 0.0014,-0.01562 0.002,-0.02344 l 0.01758,-0.294922 c 7.69e-4,-0.0078 0.0014,-0.01562 0.002,-0.02344 l 0.01172,-0.296875 c 1.02e-4,-0.0078 1.02e-4,-0.01563 0,-0.02344 l 0.0039,-0.300781 0.01172,-0.898438 z"
         id="path2"
         sodipodi:nodetypes="ccccccccccccccccccccccccccccccccccccccccccccc"
         transform="matrix(2.7223333e-8,-2.0999934,2.1000068,-4.8920004e-8,-4.0738366,104.38329)"
         inkscape:label="pattern_7" />
      <path
         style="color:#000000;fill:#cdcdcd;stroke-width:0.9996;stroke-linecap:square;stroke-linejoin:round;stroke-dasharray:1.8, 21.6;-inkscape-stroke:none"
         d="m 50.408203,19.994141 -0.01172,0.90039 -0.002,0.28711 -0.01172,0.27539 -0.01758,0.273438 -0.02344,0.271484 -0.03125,0.269531 -0.03711,0.267578 -0.04297,0.263672 -0.05078,0.263672 -0.05664,0.259766 -0.0625,0.257812 -0.07031,0.25586 -0.07422,0.251953 -0.08203,0.25 -0.277343,0.855469 1.71289,0.55664 0.277344,-0.855469 0.08398,-0.261718 c 0.0021,-0.0071 0.004,-0.0143 0.0059,-0.02148 l 0.08203,-0.273437 c 0.0021,-0.0071 0.004,-0.0143 0.0059,-0.02148 l 0.07617,-0.277343 c 0.0021,-0.0071 0.004,-0.0143 0.0059,-0.02148 l 0.0683,-0.279312 c 0.0014,-0.0071 0.0027,-0.0143 0.0039,-0.02148 l 0.0625,-0.283203 c 0.0014,-0.0071 0.0027,-0.0143 0.0039,-0.02148 L 52,23.130859 c 0.0014,-0.0071 0.0027,-0.0143 0.0039,-0.02148 l 0.04687,-0.287109 c 0.0014,-0.0078 0.0027,-0.01561 0.0039,-0.02344 l 0.04102,-0.289062 c 7.69e-4,-0.0078 0.0014,-0.01562 0.002,-0.02344 l 0.0332,-0.291016 c 7.69e-4,-0.0078 0.0014,-0.01562 0.002,-0.02344 l 0.02734,-0.292969 c 7.69e-4,-0.0078 0.0014,-0.01562 0.002,-0.02344 l 0.01758,-0.294922 c 7.69e-4,-0.0078 0.0014,-0.01562 0.002,-0.02344 l 0.01172,-0.296875 c 1.02e-4,-0.0078 1.02e-4,-0.01563 0,-0.02344 l 0.0039,-0.300781 0.01172,-0.898438 z"
         id="path3"
         sodipodi:nodetypes="ccccccccccccccccccccccccccccccccccccccccccccc"
         transform="matrix(-1.4849243,-1.4849196,1.4849291,-1.4849243,67.70926,111.01918)"
         inkscape:label="pattern_6" />
      <path
         style="color:#000000;fill:#cdcdcd;stroke-width:0.9996;stroke-linecap:square;stroke-linejoin:round;stroke-dasharray:1.8, 21.6;-inkscape-stroke:none"
         d="m 50.408203,19.994141 -0.01172,0.90039 -0.002,0.28711 -0.01172,0.27539 -0.01758,0.273438 -0.02344,0.271484 -0.03125,0.269531 -0.03711,0.267578 -0.04297,0.263672 -0.05078,0.263672 -0.05664,0.259766 -0.0625,0.257812 -0.07031,0.25586 -0.07422,0.251953 -0.08203,0.25 -0.277343,0.855469 1.71289,0.55664 0.277344,-0.855469 0.08398,-0.261718 c 0.0021,-0.0071 0.004,-0.0143 0.0059,-0.02148 l 0.08203,-0.273437 c 0.0021,-0.0071 0.004,-0.0143 0.0059,-0.02148 l 0.07617,-0.277343 c 0.0021,-0.0071 0.004,-0.0143 0.0059,-0.02148 l 0.0683,-0.279312 c 0.0014,-0.0071 0.0027,-0.0143 0.0039,-0.02148 l 0.0625,-0.283203 c 0.0014,-0.0071 0.0027,-0.0143 0.0039,-0.02148 L 52,23.130859 c 0.0014,-0.0071 0.0027,-0.0143 0.0039,-0.02148 l 0.04687,-0.287109 c 0.0014,-0.0078 0.0027,-0.01561 0.0039,-0.02344 l 0.04102,-0.289062 c 7.69e-4,-0.0078 0.0014,-0.01562 0.002,-0.02344 l 0.0332,-0.291016 c 7.69e-4,-0.0078 0.0014,-0.01562 0.002,-0.02344 l 0.02734,-0.292969 c 7.69e-4,-0.0078 0.0014,-0.01562 0.002,-0.02344 l 0.01758,-0.294922 c 7.69e-4,-0.0078 0.0014,-0.01562 0.002,-0.02344 l 0.01172,-0.296875 c 1.02e-4,-0.0078 1.02e-4,-0.01563 0,-0.02344 l 0.0039,-0.300781 0.01172,-0.898438 z"
         id="path4"
         sodipodi:nodetypes="ccccccccccccccccccccccccccccccccccccccccccccc"
         transform="matrix(-2.1000001,0,-1.8757522e-8,-2.1000001,123.15987,64.953308)"
         inkscape:label="pattern_5" />
      <path
         style="color:#000000;fill:#cdcdcd;stroke-width:0.9996;stroke-linecap:square;stroke-linejoin:round;stroke-dasharray:1.8, 21.6;-inkscape-stroke:none"
         d="m 50.408203,19.994141 -0.01172,0.90039 -0.002,0.28711 -0.01172,0.27539 -0.01758,0.273438 -0.02344,0.271484 -0.03125,0.269531 -0.03711,0.267578 -0.04297,0.263672 -0.05078,0.263672 -0.05664,0.259766 -0.0625,0.257812 -0.07031,0.25586 -0.07422,0.251953 -0.08203,0.25 -0.277343,0.855469 1.71289,0.55664 0.277344,-0.855469 0.08398,-0.261718 c 0.0021,-0.0071 0.004,-0.0143 0.0059,-0.02148 l 0.08203,-0.273437 c 0.0021,-0.0071 0.004,-0.0143 0.0059,-0.02148 l 0.07617,-0.277343 c 0.0021,-0.0071 0.004,-0.0143 0.0059,-0.02148 l 0.0683,-0.279312 c 0.0014,-0.0071 0.0027,-0.0143 0.0039,-0.02148 l 0.0625,-0.283203 c 0.0014,-0.0071 0.0027,-0.0143 0.0039,-0.02148 L 52,23.130859 c 0.0014,-0.0071 0.0027,-0.0143 0.0039,-0.02148 l 0.04687,-0.287109 c 0.0014,-0.0078 0.0027,-0.01561 0.0039,-0.02344 l 0.04102,-0.289062 c 7.69e-4,-0.0078 0.0014,-0.01562 0.002,-0.02344 l 0.0332,-0.291016 c 7.69e-4,-0.0078 0.0014,-0.01562 0.002,-0.02344 l 0.02734,-0.292969 c 7.69e-4,-0.0078 0.0014,-0.01562 0.002,-0.02344 l 0.01758,-0.294922 c 7.69e-4,-0.0078 0.0014,-0.01562 0.002,-0.02344 l 0.01172,-0.296875 c 1.02e-4,-0.0078 1.02e-4,-0.01563 0,-0.02344 l 0.0039,-0.300781 0.01172,-0.898438 z"
         id="path5"
         sodipodi:nodetypes="ccccccccccccccccccccccccccccccccccccccccccccc"
         transform="matrix(-1.4849243,1.4849196,-1.4849291,-1.4849243,129.79578,-6.829551)"
         inkscape:label="pattern_4" />
      <path
         style="color:#000000;display:inline;fill:#cdcdcd;stroke-width:0.9996;stroke-linecap:square;stroke-linejoin:round;stroke-dasharray:1.8, 21.6;-inkscape-stroke:none"
         d="m 50.408203,19.994141 -0.01172,0.90039 -0.002,0.28711 -0.01172,0.27539 -0.01758,0.273438 -0.02344,0.271484 -0.03125,0.269531 -0.03711,0.267578 -0.04297,0.263672 -0.05078,0.263672 -0.05664,0.259766 -0.0625,0.257812 -0.07031,0.25586 -0.07422,0.251953 -0.08203,0.25 -0.277343,0.855469 1.71289,0.55664 0.277344,-0.855469 0.08398,-0.261718 c 0.0021,-0.0071 0.004,-0.0143 0.0059,-0.02148 l 0.08203,-0.273437 c 0.0021,-0.0071 0.004,-0.0143 0.0059,-0.02148 l 0.07617,-0.277343 c 0.0021,-0.0071 0.004,-0.0143 0.0059,-0.02148 l 0.0683,-0.279312 c 0.0014,-0.0071 0.0027,-0.0143 0.0039,-0.02148 l 0.0625,-0.283203 c 0.0014,-0.0071 0.0027,-0.0143 0.0039,-0.02148 L 52,23.130859 c 0.0014,-0.0071 0.0027,-0.0143 0.0039,-0.02148 l 0.04687,-0.287109 c 0.0014,-0.0078 0.0027,-0.01561 0.0039,-0.02344 l 0.04102,-0.289062 c 7.69e-4,-0.0078 0.0014,-0.01562 0.002,-0.02344 l 0.0332,-0.291016 c 7.69e-4,-0.0078 0.0014,-0.01562 0.002,-0.02344 l 0.02734,-0.292969 c 7.69e-4,-0.0078 0.0014,-0.01562 0.002,-0.02344 l 0.01758,-0.294922 c 7.69e-4,-0.0078 0.0014,-0.01562 0.002,-0.02344 l 0.01172,-0.296875 c 1.02e-4,-0.0078 1.02e-4,-0.01563 0,-0.02344 l 0.0039,-0.300781 0.01172,-0.898438 z"
         id="path6"
         sodipodi:nodetypes="ccccccccccccccccccccccccccccccccccccccccccccc"
         transform="matrix(-2.7223333e-8,2.0999934,-2.1000068,4.8920004e-8,83.729765,-62.279978)"
         inkscape:label="pattern_3" />
      <path
         style="color:#000000;fill:#cdcdcd;stroke-width:0.9996;stroke-linecap:square;stroke-linejoin:round;stroke-dasharray:1.8, 21.6;-inkscape-stroke:none"
         d="m 50.408203,19.994141 -0.01172,0.90039 -0.002,0.28711 -0.01172,0.27539 -0.01758,0.273438 -0.02344,0.271484 -0.03125,0.269531 -0.03711,0.267578 -0.04297,0.263672 -0.05078,0.263672 -0.05664,0.259766 -0.0625,0.257812 -0.07031,0.25586 -0.07422,0.251953 -0.08203,0.25 -0.277343,0.855469 1.71289,0.55664 0.277344,-0.855469 0.08398,-0.261718 c 0.0021,-0.0071 0.004,-0.0143 0.0059,-0.02148 l 0.08203,-0.273437 c 0.0021,-0.0071 0.004,-0.0143 0.0059,-0.02148 l 0.07617,-0.277343 c 0.0021,-0.0071 0.004,-0.0143 0.0059,-0.02148 l 0.0683,-0.279312 c 0.0014,-0.0071 0.0027,-0.0143 0.0039,-0.02148 l 0.0625,-0.283203 c 0.0014,-0.0071 0.0027,-0.0143 0.0039,-0.02148 L 52,23.130859 c 0.0014,-0.0071 0.0027,-0.0143 0.0039,-0.02148 l 0.04687,-0.287109 c 0.0014,-0.0078 0.0027,-0.01561 0.0039,-0.02344 l 0.04102,-0.289062 c 7.69e-4,-0.0078 0.0014,-0.01562 0.002,-0.02344 l 0.0332,-0.291016 c 7.69e-4,-0.0078 0.0014,-0.01562 0.002,-0.02344 l 0.02734,-0.292969 c 7.69e-4,-0.0078 0.0014,-0.01562 0.002,-0.02344 l 0.01758,-0.294922 c 7.69e-4,-0.0078 0.0014,-0.01562 0.002,-0.02344 l 0.01172,-0.296875 c 1.02e-4,-0.0078 1.02e-4,-0.01563 0,-0.02344 l 0.0039,-0.300781 0.01172,-0.898438 z"
         id="path7"
         sodipodi:nodetypes="ccccccccccccccccccccccccccccccccccccccccccccc"
         transform="matrix(1.4849243,1.4849196,-1.4849291,1.4849243,11.946665,-68.915869)"
         inkscape:label="pattern_2" />
      <path
         style="color:#000000;fill:#cdcdcd;stroke-width:0.9996;stroke-linecap:square;stroke-linejoin:round;stroke-dasharray:1.8, 21.6;-inkscape-stroke:none"
         d="m 50.408203,19.994141 -0.01172,0.90039 -0.002,0.28711 -0.01172,0.27539 -0.01758,0.273438 -0.02344,0.271484 -0.03125,0.269531 -0.03711,0.267578 -0.04297,0.263672 -0.05078,0.263672 -0.05664,0.259766 -0.0625,0.257812 -0.07031,0.25586 -0.07422,0.251953 -0.08203,0.25 -0.277343,0.855469 1.71289,0.55664 0.277344,-0.855469 0.08398,-0.261718 c 0.0021,-0.0071 0.004,-0.0143 0.0059,-0.02148 l 0.08203,-0.273437 c 0.0021,-0.0071 0.004,-0.0143 0.0059,-0.02148 l 0.07617,-0.277343 c 0.0021,-0.0071 0.004,-0.0143 0.0059,-0.02148 l 0.0683,-0.279312 c 0.0014,-0.0071 0.0027,-0.0143 0.0039,-0.02148 l 0.0625,-0.283203 c 0.0014,-0.0071 0.0027,-0.0143 0.0039,-0.02148 L 52,23.130859 c 0.0014,-0.0071 0.0027,-0.0143 0.0039,-0.02148 l 0.04687,-0.287109 c 0.0014,-0.0078 0.0027,-0.01561 0.0039,-0.02344 l 0.04102,-0.289062 c 7.69e-4,-0.0078 0.0014,-0.01562 0.002,-0.02344 l 0.0332,-0.291016 c 7.69e-4,-0.0078 0.0014,-0.01562 0.002,-0.02344 l 0.02734,-0.292969 c 7.69e-4,-0.0078 0.0014,-0.01562 0.002,-0.02344 l 0.01758,-0.294922 c 7.69e-4,-0.0078 0.0014,-0.01562 0.002,-0.02344 l 0.01172,-0.296875 c 1.02e-4,-0.0078 1.02e-4,-0.01563 0,-0.02344 l 0.0039,-0.300781 0.01172,-0.898438 z"
         id="path8"
         sodipodi:nodetypes="ccccccccccccccccccccccccccccccccccccccccccccc"
         transform="matrix(2.1000001,0,1.8757522e-8,2.1000001,-43.50394,-22.850002)"
         inkscape:label="pattern_1" />
      <circle
         style="fill:#381f1f;fill-opacity:1;stroke-width:0.9996;stroke-linecap:square;stroke-linejoin:round"
         id="circle8"
         cx="39.681858"
         cy="20.905548"
         r="15.405549"
         inkscape:label="inner_circle" />
    </g>
  </g>
  <g
     inkscape:groupmode="layer"
     id="layer4"
     inkscape:label="headphones_and_wire"
     transform="translate(-26.455254,-35.10086)">
    <path
       style="fill:none;fill-opacity:1;stroke:#7b7b7b;stroke-width:1.8;stroke-linecap:round;stroke-linejoin:round;stroke-dasharray:none;stroke-dashoffset:0;stroke-opacity:1"
       d="M 120.96714,108.88854 V 94.82792"
       id="path5101"
       transform="translate(3.1789241,-2.3230599)"
       inkscape:label="wire"
       sodipodi:nodetypes="cc" />
    <g
       id="g4792"
       transform="rotate(60,128.34713,112.50709)"
       inkscape:label="headphones">
      <path
         style="fill:none;fill-opacity:1;stroke:#484848;stroke-width:2.8;stroke-linecap:round;stroke-linejoin:round;stroke-dasharray:none;stroke-dashoffset:0;stroke-opacity:1"
         d="m 124.58995,130.10414 c 0,0 -12.96861,-12.848 0.28777,-20.50158 13.25638,-7.65358 17.89877,10.00158 17.89877,10.00158"
         id="path3938"
         sodipodi:nodetypes="czc"
         inkscape:label="main_part" />
      <ellipse
         style="fill:#121212;fill-opacity:1;stroke:none;stroke-width:7;stroke-linecap:round;stroke-linejoin:round;stroke-dasharray:none;stroke-dashoffset:0;stroke-opacity:1"
         id="path3832"
         cx="42.84589"
         cy="174.97546"
         rx="4.1999998"
         ry="5.5999999"
         transform="rotate(-30)"
         inkscape:label="left_ear" />
      <ellipse
         style="fill:#121212;fill-opacity:1;stroke:none;stroke-width:7;stroke-linecap:round;stroke-linejoin:round;stroke-dasharray:none;stroke-dashoffset:0;stroke-opacity:1"
         id="ellipse36292"
         cx="63.845993"
         cy="174.97546"
         rx="4.1999998"
         ry="5.5999999"
         transform="rotate(-30)"
         inkscape:label="right_ear" />
    </g>
  </g>
  <metadata
     id="metadata1">
    <rdf:RDF>
      <cc:Work
         rdf:about="">
        <dc:creator>
          <cc:Agent>
            <dc:title>Egor Olegovich Yakovlev</dc:title>
          </cc:Agent>
        </dc:creator>
        <dc:title>DroidRec screen recording in progress icon</dc:title>
        <cc:license
           rdf:resource="http://creativecommons.org/publicdomain/zero/1.0/" />
      </cc:Work>
      <cc:License
         rdf:about="http://creativecommons.org/publicdomain/zero/1.0/">
        <cc:permits
           rdf:resource="http://creativecommons.org/ns#Reproduction" />
        <cc:permits
           rdf:resource="http://creativecommons.org/ns#Distribution" />
        <cc:permits
           rdf:resource="http://creativecommons.org/ns#DerivativeWorks" />
      </cc:License>
    </rdf:RDF>
  </metadata>
</svg>
